<svg width="2145" height="1824" xmlns="http://www.w3.org/2000/svg" xmlns:xlink="http://www.w3.org/1999/xlink" xml:space="preserve" overflow="hidden"><g transform="translate(-1984 -398)"><g><path d="M5.20926-8.90007 23.0094 1.51844 12.5909 19.3186-5.20926 8.90007ZM40.8095 11.937 58.6097 22.3555 48.1912 40.1556 30.391 29.7371ZM76.4098 32.774 94.21 43.1925 83.7915 60.9927 65.9913 50.5741ZM112.01 53.611 129.81 64.0295 119.392 81.8297 101.592 71.4112ZM147.61 74.4481 165.411 84.8666 154.992 102.667 137.192 92.2482ZM183.211 95.2851 201.011 105.704 190.592 123.504 172.792 113.085ZM218.811 116.122 236.611 126.541 226.193 144.341 208.392 133.922ZM254.411 136.959 272.211 147.378 261.793 165.178 243.993 154.759ZM290.012 157.796 307.812 168.215 297.393 186.015 279.593 175.596ZM325.612 178.633 343.412 189.052 332.993 206.852 315.193 196.433ZM361.212 199.47 379.012 209.889 368.594 227.689 350.794 217.27ZM396.812 220.307 414.613 230.726 404.194 248.526 386.394 238.107ZM432.413 241.144 450.213 251.563 439.794 269.363 421.994 258.944ZM468.013 261.981 485.813 272.4 475.395 290.2 457.594 279.781ZM503.613 282.818 521.414 293.237 510.995 311.037 493.195 300.618ZM539.214 303.655 557.014 314.074 546.595 331.874 528.795 321.455ZM574.814 324.492 592.614 334.911 582.196 352.711 564.395 342.293ZM610.414 345.329 628.214 355.748 617.796 373.548 599.996 363.13ZM646.015 366.166 663.815 376.585 653.396 394.385 635.596 383.967ZM681.615 387.003 699.415 397.422 688.996 415.222 671.196 404.804ZM717.215 407.841 735.015 418.259 724.597 436.059 706.797 425.641ZM752.815 428.678 770.615 439.096 760.197 456.896 742.397 446.478ZM777.996 419.518 815.769 477.474 746.741 472.918Z" fill="#0075BD" fill-rule="nonzero" fill-opacity="1" transform="matrix(1 0 0 -1 2582.5 1246.97)"/><path d="M2582.5 1248.19 2603.12 1248.19 2603.12 1268.81 2582.5 1268.81ZM2623.75 1248.19 2644.38 1248.19 2644.38 1268.81 2623.75 1268.81ZM2665 1248.19 2685.62 1248.19 2685.62 1268.81 2665 1268.81ZM2706.25 1248.19 2726.88 1248.19 2726.88 1268.81 2706.25 1268.81ZM2747.5 1248.19 2768.12 1248.19 2768.12 1268.81 2747.5 1268.81ZM2788.75 1248.19 2809.38 1248.19 2809.38 1268.81 2788.75 1268.81ZM2830 1248.19 2850.62 1248.19 2850.62 1268.81 2830 1268.81ZM2871.25 1248.19 2891.88 1248.19 2891.88 1268.81 2871.25 1268.81ZM2912.5 1248.19 2933.12 1248.19 2933.12 1268.81 2912.5 1268.81ZM2953.75 1248.19 2974.38 1248.19 2974.38 1268.81 2953.75 1268.81ZM2995 1248.19 3015.62 1248.19 3015.62 1268.81 2995 1268.81ZM3036.25 1248.19 3056.88 1248.19 3056.88 1268.81 3036.25 1268.81ZM3077.5 1248.19 3098.12 1248.19 3098.12 1268.81 3077.5 1268.81ZM3118.75 1248.19 3139.38 1248.19 3139.38 1268.81 3118.75 1268.81ZM3160 1248.19 3180.62 1248.19 3180.62 1268.81 3160 1268.81ZM3201.25 1248.19 3221.88 1248.19 3221.88 1268.81 3201.25 1268.81ZM3242.5 1248.19 3263.12 1248.19 3263.12 1268.81 3242.5 1268.81ZM3283.75 1248.19 3304.38 1248.19 3304.38 1268.81 3283.75 1268.81ZM3325 1248.19 3328.48 1248.19 3328.48 1268.81 3325 1268.81ZM3318.17 1227.56 3380.05 1258.5 3318.17 1289.44Z" fill="#0075BD" fill-rule="nonzero" fill-opacity="1"/><path d="M2586.55 1260.02 2605.52 1268.11 2597.42 1287.08 2578.45 1278.98ZM2624.49 1276.21 2643.46 1284.3 2635.36 1303.27 2616.39 1295.18ZM2662.43 1292.4 2681.4 1300.5 2673.3 1319.47 2654.33 1311.37ZM2700.36 1308.59 2719.33 1316.69 2711.24 1335.66 2692.27 1327.56ZM2738.3 1324.79 2757.27 1332.88 2749.18 1351.85 2730.21 1343.76ZM2776.24 1340.98 2795.21 1349.08 2787.11 1368.05 2768.15 1359.95ZM2814.18 1357.17 2833.15 1365.27 2825.05 1384.24 2806.08 1376.14ZM2852.12 1373.37 2871.09 1381.46 2862.99 1400.43 2844.02 1392.34ZM2890.06 1389.56 2909.03 1397.66 2900.93 1416.63 2881.96 1408.53ZM2928 1405.75 2946.97 1413.85 2938.87 1432.82 2919.9 1424.72ZM2965.94 1421.95 2984.91 1430.04 2976.81 1449.01 2957.84 1440.92ZM3003.87 1438.14 3022.84 1446.24 3014.75 1465.2 2995.78 1457.11ZM3041.81 1454.33 3060.78 1462.43 3052.69 1481.4 3033.72 1473.3ZM3079.75 1470.52 3098.72 1478.62 3090.62 1497.59 3071.66 1489.49ZM3117.69 1486.72 3136.66 1494.81 3128.56 1513.78 3109.59 1505.69ZM3155.63 1502.91 3174.6 1511.01 3166.5 1529.98 3147.53 1521.88ZM3193.57 1519.1 3212.54 1527.2 3204.44 1546.17 3185.47 1538.07ZM3231.51 1535.3 3250.48 1543.39 3242.38 1562.36 3223.41 1554.27ZM3269.45 1551.49 3288.42 1559.59 3280.32 1578.56 3261.35 1570.46ZM3307.38 1567.68 3326.35 1575.78 3318.26 1594.75 3299.29 1586.65ZM3345.32 1583.88 3354.89 1587.96 3346.8 1606.93 3337.23 1602.85ZM3353.51 1564.94 3398.27 1617.69 3329.22 1621.85Z" fill="#0075BD" fill-rule="nonzero" fill-opacity="1"/><path d="M2589.07 1273.55 2604.97 1286.69 2591.83 1302.59 2575.93 1289.45ZM2620.87 1299.83 2636.77 1312.96 2623.63 1328.86 2607.73 1315.73ZM2652.67 1326.1 2668.56 1339.24 2655.43 1355.14 2639.53 1342ZM2684.46 1352.38 2700.36 1365.52 2687.22 1381.42 2671.33 1368.28ZM2716.26 1378.66 2732.16 1391.79 2719.02 1407.69 2703.12 1394.55ZM2748.06 1404.93 2763.96 1418.07 2750.82 1433.97 2734.92 1420.83ZM2779.86 1431.21 2795.76 1444.35 2782.62 1460.25 2766.72 1447.11ZM2811.66 1457.48 2827.55 1470.62 2814.42 1486.52 2798.52 1473.38ZM2843.45 1483.76 2859.35 1496.9 2846.21 1512.8 2830.32 1499.66ZM2875.25 1510.04 2891.15 1523.17 2878.01 1539.07 2862.11 1525.94ZM2907.05 1536.31 2922.95 1549.45 2909.81 1565.35 2893.91 1552.21ZM2938.85 1562.59 2954.75 1575.73 2941.61 1591.63 2925.71 1578.49ZM2970.65 1588.87 2986.55 1602 2973.41 1617.9 2957.51 1604.76ZM3002.44 1615.14 3018.34 1628.28 3005.21 1644.18 2989.31 1631.04ZM3034.24 1641.42 3050.14 1654.56 3037 1670.46 3021.1 1657.32ZM3066.04 1667.69 3081.94 1680.83 3068.8 1696.73 3052.9 1683.59ZM3097.84 1693.97 3113.74 1707.11 3100.6 1723.01 3084.7 1709.87ZM3129.64 1720.25 3145.54 1733.39 3132.4 1749.28 3116.5 1736.15ZM3161.44 1746.52 3177.33 1759.66 3164.2 1775.56 3148.3 1762.42ZM3193.23 1772.8 3209.13 1785.94 3195.99 1801.84 3180.1 1788.7ZM3225.03 1799.08 3240.93 1812.21 3227.79 1828.11 3211.89 1814.97ZM3256.83 1825.35 3272.73 1838.49 3259.59 1854.39 3243.69 1841.25ZM3288.63 1851.63 3304.53 1864.77 3291.39 1880.67 3275.49 1867.53ZM3320.43 1877.9 3336.32 1891.04 3323.19 1906.94 3307.29 1893.8ZM3352.06 1877.29 3380.05 1940.55 3312.64 1924.98Z" fill="#0075BD" fill-rule="nonzero" fill-opacity="1"/><text fill="#000000" fill-opacity="1" font-family="Arial,Arial_MSFontService,sans-serif" font-style="normal" font-variant="normal" font-weight="400" font-stretch="normal" font-size="183" text-anchor="start" direction="ltr" writing-mode="lr-tb" unicode-bidi="normal" text-decoration="none" transform="matrix(1 0 0 1 2835.48 875)">???</text><path d="M2582.5 1248.19 3328.48 1248.19 3328.48 1268.81 2582.5 1268.81ZM3318.17 1227.56 3380.05 1258.5 3318.17 1289.44Z" fill="#DB4437" fill-rule="nonzero" fill-opacity="1"/><path d="M2525 605.5 2525 955.5 2582.5 955.5 2467.5 1070.5 2352.5 955.5 2410 955.5 2410 605.5Z" stroke="#002E4E" stroke-width="9.16667" stroke-linecap="butt" stroke-linejoin="miter" stroke-miterlimit="8" stroke-opacity="1" fill="#DB4437" fill-rule="evenodd" fill-opacity="1"/><path d="M2525 1070.5 2525 1419.5 2582.5 1419.5 2467.5 1534.5 2352.5 1419.5 2410 1419.5 2410 1070.5Z" stroke="#002E4E" stroke-width="9.16667" stroke-linecap="butt" stroke-linejoin="miter" stroke-miterlimit="8" stroke-opacity="1" fill="#0F9D58" fill-rule="evenodd" fill-opacity="1"/><path d="M2525 1534.5 2525 1640 2582.5 1640 2467.5 1745.5 2352.5 1640 2410 1640 2410 1534.5Z" stroke="#002E4E" stroke-width="9.16667" stroke-linecap="butt" stroke-linejoin="miter" stroke-miterlimit="8" stroke-opacity="1" fill="#DB4437" fill-rule="evenodd" fill-opacity="1"/><text fill="#000000" fill-opacity="1" font-family="Arial,Arial_MSFontService,sans-serif" font-style="normal" font-variant="normal" font-weight="400" font-stretch="normal" font-size="110" text-anchor="start" direction="ltr" writing-mode="lr-tb" unicode-bidi="normal" text-decoration="none" transform="matrix(1 0 0 1 3431.14 809)">Kernel Code</text><text fill="#000000" fill-opacity="1" font-family="Arial,Arial_MSFontService,sans-serif" font-style="normal" font-variant="normal" font-weight="400" font-stretch="normal" font-size="110" text-anchor="start" direction="ltr" writing-mode="lr-tb" unicode-bidi="normal" text-decoration="none" transform="matrix(1 0 0 1 3412.92 1298)">User space 1</text><text fill="#000000" fill-opacity="1" font-family="Arial,Arial_MSFontService,sans-serif" font-style="normal" font-variant="normal" font-weight="400" font-stretch="normal" font-size="110" text-anchor="start" direction="ltr" writing-mode="lr-tb" unicode-bidi="normal" text-decoration="none" transform="matrix(1 0 0 1 3431.14 1658)">Kernel Code</text><path d="M2525 1748.5 2525 2098.5 2582.5 2098.5 2467.5 2213.5 2352.5 2098.5 2410 2098.5 2410 1748.5Z" stroke="#002E4E" stroke-width="9.16667" stroke-linecap="butt" stroke-linejoin="miter" stroke-miterlimit="8" stroke-opacity="1" fill="#0277BD" fill-rule="evenodd" fill-opacity="1"/><text fill="#000000" fill-opacity="1" font-family="Arial,Arial_MSFontService,sans-serif" font-style="normal" font-variant="normal" font-weight="400" font-stretch="normal" font-size="110" text-anchor="start" direction="ltr" writing-mode="lr-tb" unicode-bidi="normal" text-decoration="none" transform="matrix(1 0 0 1 3412.92 1980)">User space 2</text><text fill="#000000" fill-opacity="1" font-family="Arial,Arial_MSFontService,sans-serif" font-style="normal" font-variant="normal" font-weight="400" font-stretch="normal" font-size="110" text-anchor="start" direction="ltr" writing-mode="lr-tb" unicode-bidi="normal" text-decoration="none" transform="matrix(1 0 0 1 2053.4 540)">Instruction Trace</text></g></g></svg>